<svg width="432" height="98" viewBox="0 0 432 98" fill="none" xmlns="http://www.w3.org/2000/svg">
<path d="M19.6045 83L11.0107 54.9971H10.791C11.1003 60.6937 11.2549 64.4941 11.2549 66.3984V83H4.49219V47.3066H14.7949L23.2422 74.6016H23.3887L32.3486 47.3066H42.6514V83H35.5957V66.1055C35.5957 65.3079 35.6038 64.3883 35.6201 63.3467C35.6527 62.305 35.7666 59.5381 35.9619 55.0459H35.7422L26.5381 83H19.6045ZM49.1602 47.3066H60.2686C65.3304 47.3066 69.0007 48.0309 71.2793 49.4795C73.5742 50.9118 74.7217 53.1986 74.7217 56.3398C74.7217 58.472 74.2171 60.2217 73.208 61.5889C72.2152 62.9561 70.8887 63.778 69.2285 64.0547V64.2988C71.4909 64.8034 73.1185 65.7474 74.1113 67.1309C75.1204 68.5143 75.625 70.3535 75.625 72.6484C75.625 75.9036 74.445 78.4427 72.085 80.2656C69.7412 82.0885 66.5511 83 62.5146 83H49.1602V47.3066ZM56.7285 61.4424H61.123C63.1738 61.4424 64.6549 61.125 65.5664 60.4902C66.4941 59.8555 66.958 58.8057 66.958 57.3408C66.958 55.9736 66.4535 54.9971 65.4443 54.4111C64.4515 53.8089 62.8727 53.5078 60.708 53.5078H56.7285V61.4424ZM56.7285 67.4482V76.75H61.6602C63.7435 76.75 65.2816 76.3512 66.2744 75.5537C67.2673 74.7562 67.7637 73.5355 67.7637 71.8916C67.7637 68.9294 65.6478 67.4482 61.416 67.4482H56.7285ZM95.415 53.0928C92.5667 53.0928 90.3613 54.167 88.7988 56.3154C87.2363 58.4476 86.4551 61.4261 86.4551 65.251C86.4551 73.21 89.4417 77.1895 95.415 77.1895C97.9215 77.1895 100.957 76.5628 104.521 75.3096V81.6572C101.592 82.8779 98.3203 83.4883 94.707 83.4883C89.515 83.4883 85.5436 81.9176 82.793 78.7764C80.0423 75.6188 78.667 71.0941 78.667 65.2021C78.667 61.4912 79.3424 58.2441 80.6934 55.4609C82.0443 52.6615 83.9811 50.5212 86.5039 49.04C89.043 47.5426 92.0133 46.7939 95.415 46.7939C98.8818 46.7939 102.365 47.6322 105.864 49.3086L103.423 55.4609C102.088 54.8262 100.745 54.2728 99.3945 53.8008C98.0436 53.3288 96.7171 53.0928 95.415 53.0928ZM136.338 83L124.229 51.3594H124.033C124.261 53.8659 124.375 56.8444 124.375 60.2949V83H120.542V47.3066H126.792L138.096 76.75H138.291L149.692 47.3066H155.894V83H151.743V60.002C151.743 57.3652 151.857 54.5007 152.085 51.4082H151.89L139.683 83H136.338ZM183.105 83H163.208V47.3066H183.105V50.9932H167.358V62.4922H182.153V66.1543H167.358V79.2891H183.105V83ZM217.031 64.8115C217.031 70.7035 215.428 75.2119 212.222 78.3369C209.032 81.4456 204.434 83 198.428 83H188.54V47.3066H199.478C205.028 47.3066 209.341 48.8447 212.417 51.9209C215.493 54.9971 217.031 59.2939 217.031 64.8115ZM212.637 64.958C212.637 60.3031 211.465 56.7956 209.121 54.4355C206.794 52.0755 203.327 50.8955 198.721 50.8955H192.69V79.4111H197.744C202.692 79.4111 206.411 78.1986 208.901 75.7734C211.392 73.332 212.637 69.7269 212.637 64.958ZM222.515 83V47.3066H226.665V83H222.515ZM256.416 83L251.973 71.6475H237.666L233.271 83H229.072L243.184 47.1602H246.675L260.713 83H256.416ZM250.679 67.9121L246.528 56.8525C245.991 55.4528 245.438 53.7357 244.868 51.7012C244.51 53.2637 243.997 54.9808 243.33 56.8525L239.131 67.9121H250.679ZM289.307 64.2988H301.44V81.6572C299.552 82.2594 297.632 82.7152 295.679 83.0244C293.726 83.3337 291.463 83.4883 288.892 83.4883C283.488 83.4883 279.281 81.8851 276.27 78.6787C273.258 75.4561 271.753 70.9476 271.753 65.1533C271.753 61.4424 272.493 58.1953 273.975 55.4121C275.472 52.6126 277.62 50.4805 280.42 49.0156C283.219 47.5345 286.499 46.7939 290.259 46.7939C294.067 46.7939 297.616 47.4938 300.903 48.8936L299.292 52.5557C296.069 51.1885 292.969 50.5049 289.99 50.5049C285.645 50.5049 282.251 51.7988 279.81 54.3867C277.368 56.9746 276.147 60.5635 276.147 65.1533C276.147 69.971 277.319 73.625 279.663 76.1152C282.023 78.6055 285.482 79.8506 290.039 79.8506C292.513 79.8506 294.93 79.5658 297.29 78.9961V68.0098H289.307V64.2988ZM311.685 68.1562V83H307.534V47.3066H317.324C321.702 47.3066 324.933 48.1449 327.017 49.8213C329.116 51.4977 330.166 54.0205 330.166 57.3896C330.166 62.1097 327.773 65.2998 322.988 66.96L332.681 83H327.773L319.131 68.1562H311.685ZM311.685 64.5918H317.373C320.303 64.5918 322.451 64.014 323.818 62.8584C325.186 61.6865 325.869 59.9368 325.869 57.6094C325.869 55.2493 325.169 53.5485 323.77 52.5068C322.386 51.4652 320.156 50.9443 317.08 50.9443H311.685V64.5918ZM366.924 65.1045C366.924 70.8174 365.475 75.3096 362.578 78.5811C359.697 81.8525 355.685 83.4883 350.542 83.4883C345.285 83.4883 341.224 81.8851 338.359 78.6787C335.511 75.4561 334.087 70.915 334.087 65.0557C334.087 59.2451 335.519 54.7448 338.384 51.5547C341.248 48.3483 345.317 46.7451 350.591 46.7451C355.718 46.7451 359.722 48.3727 362.603 51.6279C365.483 54.8831 366.924 59.3753 366.924 65.1045ZM338.481 65.1045C338.481 69.9385 339.507 73.6087 341.558 76.1152C343.625 78.6055 346.619 79.8506 350.542 79.8506C354.497 79.8506 357.484 78.6055 359.502 76.1152C361.52 73.625 362.529 69.9548 362.529 65.1045C362.529 60.3031 361.52 56.6654 359.502 54.1914C357.5 51.7012 354.53 50.4561 350.591 50.4561C346.636 50.4561 343.625 51.7093 341.558 54.2158C339.507 56.7061 338.481 60.3356 338.481 65.1045ZM399.36 47.3066V70.4023C399.36 74.4714 398.132 77.6696 395.674 79.9971C393.216 82.3245 389.839 83.4883 385.542 83.4883C381.245 83.4883 377.917 82.3164 375.557 79.9727C373.213 77.6289 372.041 74.4062 372.041 70.3047V47.3066H376.191V70.5977C376.191 73.5762 377.005 75.863 378.633 77.458C380.26 79.0531 382.653 79.8506 385.811 79.8506C388.822 79.8506 391.141 79.0531 392.769 77.458C394.396 75.8467 395.21 73.5436 395.21 70.5488V47.3066H399.36ZM428.965 57.707C428.965 61.3203 427.728 64.1035 425.254 66.0566C422.796 67.9935 419.272 68.9619 414.683 68.9619H410.483V83H406.333V47.3066H415.586C424.505 47.3066 428.965 50.7734 428.965 57.707ZM410.483 65.3975H414.219C417.897 65.3975 420.558 64.8034 422.202 63.6152C423.846 62.4271 424.668 60.5228 424.668 57.9023C424.668 55.5423 423.895 53.7845 422.349 52.6289C420.802 51.4733 418.394 50.8955 415.122 50.8955H410.483V65.3975Z" fill="white"/>
<path d="M17.3086 26H15.3398L11.8828 14.5273C11.7188 14.0195 11.5352 13.3789 11.332 12.6055C11.1289 11.832 11.0234 11.3672 11.0156 11.2109C10.8438 12.2422 10.5703 13.3711 10.1953 14.5977L6.84375 26H4.875L0.316406 8.86719H2.42578L5.13281 19.4492C5.50781 20.9336 5.78125 22.2773 5.95312 23.4805C6.16406 22.0508 6.47656 20.6523 6.89062 19.2852L9.96094 8.86719H12.0703L15.293 19.3789C15.668 20.5898 15.9844 21.957 16.2422 23.4805C16.3906 22.3711 16.6719 21.0195 17.0859 19.4258L19.7812 8.86719H21.8906L17.3086 26ZM29.707 26.2344C27.8086 26.2344 26.3086 25.6562 25.207 24.5C24.1133 23.3438 23.5664 21.7383 23.5664 19.6836C23.5664 17.6133 24.0742 15.9688 25.0898 14.75C26.1133 13.5312 27.4844 12.9219 29.2031 12.9219C30.8125 12.9219 32.0859 13.4531 33.0234 14.5156C33.9609 15.5703 34.4297 16.9648 34.4297 18.6992V19.9297H25.582C25.6211 21.4375 26 22.582 26.7188 23.3633C27.4453 24.1445 28.4648 24.5352 29.7773 24.5352C31.1602 24.5352 32.5273 24.2461 33.8789 23.668V25.4023C33.1914 25.6992 32.5391 25.9102 31.9219 26.0352C31.3125 26.168 30.5742 26.2344 29.707 26.2344ZM29.1797 14.5508C28.1484 14.5508 27.3242 14.8867 26.707 15.5586C26.0977 16.2305 25.7383 17.1602 25.6289 18.3477H32.3438C32.3438 17.1211 32.0703 16.1836 31.5234 15.5352C30.9766 14.8789 30.1953 14.5508 29.1797 14.5508ZM51.8906 26L51.5039 24.1719H51.4102C50.7695 24.9766 50.1289 25.5234 49.4883 25.8125C48.8555 26.0938 48.0625 26.2344 47.1094 26.2344C45.8359 26.2344 44.8359 25.9062 44.1094 25.25C43.3906 24.5938 43.0312 23.6602 43.0312 22.4492C43.0312 19.8555 45.1055 18.4961 49.2539 18.3711L51.4336 18.3008V17.5039C51.4336 16.4961 51.2148 15.7539 50.7773 15.2773C50.3477 14.793 49.6562 14.5508 48.7031 14.5508C47.6328 14.5508 46.4219 14.8789 45.0703 15.5352L44.4727 14.0469C45.1055 13.7031 45.7969 13.4336 46.5469 13.2383C47.3047 13.043 48.0625 12.9453 48.8203 12.9453C50.3516 12.9453 51.4844 13.2852 52.2188 13.9648C52.9609 14.6445 53.332 15.7344 53.332 17.2344V26H51.8906ZM47.4961 24.6289C48.707 24.6289 49.6562 24.2969 50.3438 23.6328C51.0391 22.9688 51.3867 22.0391 51.3867 20.8438V19.6836L49.4414 19.7656C47.8945 19.8203 46.7773 20.0625 46.0898 20.4922C45.4102 20.9141 45.0703 21.5742 45.0703 22.4727C45.0703 23.1758 45.2812 23.7109 45.7031 24.0781C46.1328 24.4453 46.7305 24.6289 47.4961 24.6289ZM63.2109 12.9219C63.7812 12.9219 64.293 12.9688 64.7461 13.0625L64.4766 14.8672C63.9453 14.75 63.4766 14.6914 63.0703 14.6914C62.0312 14.6914 61.1406 15.1133 60.3984 15.957C59.6641 16.8008 59.2969 17.8516 59.2969 19.1094V26H57.3516V13.1562H58.957L59.1797 15.5352H59.2734C59.75 14.6992 60.3242 14.0547 60.9961 13.6016C61.668 13.1484 62.4062 12.9219 63.2109 12.9219ZM72.5742 26.2344C70.6758 26.2344 69.1758 25.6562 68.0742 24.5C66.9805 23.3438 66.4336 21.7383 66.4336 19.6836C66.4336 17.6133 66.9414 15.9688 67.957 14.75C68.9805 13.5312 70.3516 12.9219 72.0703 12.9219C73.6797 12.9219 74.9531 13.4531 75.8906 14.5156C76.8281 15.5703 77.2969 16.9648 77.2969 18.6992V19.9297H68.4492C68.4883 21.4375 68.8672 22.582 69.5859 23.3633C70.3125 24.1445 71.332 24.5352 72.6445 24.5352C74.0273 24.5352 75.3945 24.2461 76.7461 23.668V25.4023C76.0586 25.6992 75.4062 25.9102 74.7891 26.0352C74.1797 26.168 73.4414 26.2344 72.5742 26.2344ZM72.0469 14.5508C71.0156 14.5508 70.1914 14.8867 69.5742 15.5586C68.9648 16.2305 68.6055 17.1602 68.4961 18.3477H75.2109C75.2109 17.1211 74.9375 16.1836 74.3906 15.5352C73.8438 14.8789 73.0625 14.5508 72.0469 14.5508Z" fill="white"/>
</svg>
